<svg width="64" height="64" viewBox="0 0 64 64" fill="none" xmlns="http://www.w3.org/2000/svg">
<rect width="64" height="64" fill="#0A0A0A"/>
<path d="M16 52V12H32.5234C35.5182 12 38.1029 12.5404 40.2773 13.6211C42.4648 14.6888 44.151 16.2253 45.3359 18.2305C46.5208 20.2227 47.1133 22.5859 47.1133 25.3203C47.1133 28.0937 46.5078 30.4505 45.2969 32.3906C44.0859 34.3177 42.3672 35.7891 40.1406 36.8047C37.9141 37.8073 35.2773 38.3086 32.2305 38.3086H21.7812V30.6914H30.4336C31.8919 30.6914 33.1094 30.5026 34.0859 30.125C35.0755 29.7344 35.8242 29.1484 36.332 28.3672C36.8398 27.5729 37.0937 26.5573 37.0937 25.3203C37.0937 24.0833 36.8398 23.0612 36.332 22.2539C35.8242 21.4336 35.0755 20.8216 34.0859 20.418C33.0964 20.0013 31.8789 19.793 30.4336 19.793H25.668V52H16ZM38.5195 33.7187L48.4805 52H37.9336L28.168 33.7187H38.5195Z" fill="url(#paint0_linear_1_2)"/>
<defs>
<linearGradient id="paint0_linear_1_2" x1="48.4805" y1="44.4806" x2="16" y2="12.1012" gradientUnits="userSpaceOnUse">
<stop stop-color="#0EA5E9"/>
<stop offset="1" stop-color="#7DD3FC"/>
</linearGradient>
</defs>
</svg>
